<?xml version="1.0" standalone="no"?>
<!DOCTYPE svg PUBLIC "-//W3C//DTD SVG 20010904//EN"
 "http://www.w3.org/TR/2001/REC-SVG-20010904/DTD/svg10.dtd">
<svg version="1.0" xmlns="http://www.w3.org/2000/svg"
 width="600.000000pt" height="600.000000pt" viewBox="0 0 600.000000 600.000000"
 preserveAspectRatio="xMidYMid meet">

<g transform="translate(0.000000,600.000000) scale(0.100000,-0.100000)"
fill="#000000" stroke="none">
<path d="M2720 5916 c-295 -32 -534 -90 -795 -193 -683 -270 -1223 -767 -1554
-1431 -204 -409 -302 -831 -302 -1297 0 -389 54 -692 188 -1055 88 -241 286
-585 460 -800 425 -528 1048 -905 1713 -1036 186 -36 333 -51 550 -53 686 -7
1324 212 1861 640 835 666 1242 1734 1063 2794 -215 1270 -1245 2257 -2525
2420 -172 22 -503 27 -659 11z m375 -251 c33 -3 118 -10 189 -15 96 -7 134
-14 148 -26 21 -20 24 -35 6 -29 -30 9 -188 15 -188 7 0 -5 13 -12 29 -15 63
-13 119 -92 109 -156 -1 -13 -15 -33 -30 -44 -23 -17 -33 -19 -55 -11 -54 18
-37 90 19 82 18 -3 28 0 28 8 0 21 -43 63 -72 69 -26 7 -26 6 -33 -62 -3 -37
-8 -84 -10 -103 -2 -19 -4 -52 -5 -72 0 -51 -15 -48 -44 11 -28 55 -87 109
-128 118 -29 6 -83 67 -73 82 6 11 146 66 193 76 35 7 42 21 15 29 -10 2 -65
8 -123 11 -73 5 -110 12 -122 23 -30 26 -20 34 35 28 28 -3 79 -8 112 -11z
m-385 -30 l25 -13 -25 -6 c-14 -3 -58 -12 -98 -20 -78 -15 -102 -26 -59 -26
97 0 186 -109 143 -175 -28 -42 -106 -30 -106 16 0 23 25 42 55 42 14 0 25 3
25 8 0 18 -55 49 -86 49 -41 0 -41 2 -10 -150 13 -63 21 -119 18 -123 -2 -5
-22 10 -45 33 -46 49 -107 79 -157 80 -23 0 -46 10 -69 28 l-33 28 48 41 c27
22 73 55 102 73 60 36 68 55 20 46 -232 -46 -218 -44 -241 -25 l-22 17 40 8
c22 4 123 24 225 45 213 43 217 43 250 24z m957 -55 c235 -64 379 -119 414
-160 l26 -30 12 40 c15 49 31 52 31 5 0 -19 4 -35 10 -35 5 0 17 -14 26 -31
15 -30 15 -32 -2 -24 -49 20 -48 21 -118 -132 -37 -81 -72 -152 -77 -157 -4
-5 -13 1 -19 15 -9 21 -3 41 45 142 60 128 65 155 35 182 -47 42 -89 -5 -110
-125 -17 -99 -49 -135 -127 -146 -29 -4 -43 -1 -52 10 -12 14 -10 16 12 16 38
0 73 19 85 45 6 13 14 50 17 82 8 68 29 110 71 138 l30 21 -68 28 c-38 15 -71
26 -73 24 -2 -2 -18 -55 -35 -118 -17 -63 -38 -140 -47 -170 l-15 -55 -18 23
c-18 22 -18 25 6 115 31 114 29 141 -9 145 -22 3 -30 -1 -34 -17 -7 -28 -21
-26 -33 3 -28 73 -147 75 -138 1 1 -16 9 -31 17 -33 8 -3 11 0 7 6 -8 14 21
42 43 42 42 0 73 -56 46 -84 -32 -31 -121 -11 -145 33 -18 35 -12 87 16 120
35 42 93 44 133 4 24 -25 30 -27 51 -16 26 13 55 3 77 -26 10 -14 13 -13 21 9
6 14 7 28 3 32 -3 3 -69 23 -146 43 -144 38 -159 45 -177 78 -9 17 -8 19 6 14
9 -4 100 -29 203 -57z m-1641 -22 c11 -11 -2 -13 -80 -13 -84 0 -96 -2 -134
-28 -39 -26 -82 -89 -82 -121 0 -22 31 -36 53 -25 10 6 28 7 40 4 l22 -6 -22
13 c-20 12 -6 19 164 85 158 61 189 70 212 61 l26 -10 -33 -16 c-18 -9 -31
-21 -29 -26 79 -202 118 -309 113 -313 -3 -3 -23 10 -45 30 -21 19 -53 38 -70
42 -27 6 -36 2 -60 -24 -42 -45 -94 -42 -119 5 -15 28 4 65 45 85 24 12 29 19
21 32 -7 13 -24 17 -79 17 -39 0 -79 5 -90 10 -17 10 -37 3 -78 -27 -2 -2 30
-70 72 -152 43 -81 77 -151 77 -155 0 -3 -9 -6 -19 -6 -25 0 -44 28 -111 160
-69 137 -63 131 -108 113 -82 -32 -83 -25 23 -181 52 -77 95 -146 95 -154 0
-8 7 -23 15 -34 26 -34 19 -42 -26 -30 -38 10 -45 8 -118 -32 -118 -63 -188
-55 -210 26 -12 40 10 46 27 7 16 -35 67 -33 139 5 34 19 71 30 95 30 l39 0
-17 32 c-40 77 -127 197 -147 202 -43 11 -76 6 -86 -13 -9 -17 -6 -20 27 -26
45 -8 62 -21 62 -48 0 -30 -29 -57 -62 -57 -18 0 -28 -5 -28 -15 0 -23 -37
-55 -64 -55 -42 0 -62 50 -43 108 7 19 5 22 -18 22 -14 0 -36 -7 -50 -16 -13
-8 -38 -14 -57 -12 l-33 3 53 34 c41 26 60 32 91 29 37 -3 40 -1 45 26 13 64
66 91 130 66 14 -5 26 -7 26 -4 0 3 -16 26 -36 52 -29 38 -33 48 -19 50 9 2
23 -2 31 -9 12 -10 26 -7 74 16 55 26 58 29 38 39 -35 18 -43 40 -30 83 16 54
72 109 130 128 57 18 197 14 218 -7z m2307 -251 c39 -17 55 -36 72 -83 l12
-36 28 49 c35 61 34 60 45 43 5 -8 5 -21 0 -31 -7 -12 -4 -23 10 -39 11 -13
20 -31 20 -42 0 -17 -2 -17 -28 -4 l-29 15 -89 -149 c-49 -81 -92 -146 -95
-144 -4 2 -10 15 -13 29 -5 20 5 45 49 115 45 74 55 98 55 134 0 37 -5 48 -31
70 -17 14 -39 26 -50 26 -26 0 -69 -43 -69 -70 0 -24 6 -25 26 -5 16 16 42 10
62 -13 16 -21 15 -37 -4 -56 -42 -43 -134 18 -134 89 0 47 14 71 53 95 38 23
66 25 110 7z m-947 -206 c433 -82 800 -271 1113 -576 336 -327 535 -704 623
-1180 27 -145 33 -480 12 -638 -102 -757 -605 -1411 -1306 -1701 -796 -329
-1719 -149 -2325 452 -182 179 -311 359 -423 587 -149 304 -209 552 -215 900
-4 214 2 292 40 480 96 475 367 920 750 1230 302 244 671 405 1054 460 148 21
533 13 677 -14z m1495 -208 c171 -173 215 -229 206 -264 -4 -16 1 -14 34 12
28 22 39 26 39 15 0 -8 -5 -18 -10 -21 -6 -4 -8 -26 -4 -56 7 -54 1 -60 -25
-28 -17 21 -18 21 -157 -86 -104 -80 -140 -103 -142 -90 -6 29 5 41 112 124
62 47 108 91 111 104 11 41 -23 91 -135 202 l-111 110 6 -55 c8 -74 1 -82 -61
-71 -27 5 -50 8 -51 7 -1 -1 4 -23 12 -49 8 -26 12 -56 10 -67 -2 -11 -1 -20
2 -20 4 0 39 32 79 70 39 39 76 70 82 70 20 0 71 -70 78 -106 8 -44 -15 -95
-51 -114 -45 -24 -115 39 -84 76 18 22 61 13 75 -15 12 -23 12 -23 18 -3 7 21
-15 75 -35 88 -6 4 -53 -35 -110 -92 l-99 -98 6 80 c6 69 4 85 -15 121 -11 23
-25 44 -31 48 -12 8 -13 55 -1 74 7 11 24 13 75 8 36 -3 66 -4 66 -1 0 2 -13
30 -29 62 -29 59 -48 132 -34 132 5 0 83 -75 174 -167z m-3741 -28 c-21 -22
-22 -27 -9 -39 8 -7 67 -59 133 -116 115 -101 118 -104 91 -112 -25 -6 -37 2
-116 73 -79 70 -93 79 -128 79 -37 0 -71 -19 -71 -41 0 -5 23 -9 50 -9 43 0
52 -3 59 -22 12 -33 -1 -61 -37 -78 -21 -10 -32 -22 -32 -37 0 -27 -44 -63
-70 -56 -30 8 -43 30 -43 73 0 50 -21 53 -71 9 -21 -18 -44 -29 -56 -27 -18 3
-17 7 17 46 31 35 46 45 80 49 39 5 42 8 37 29 -9 34 12 79 42 93 14 6 42 11
62 11 l37 0 -30 24 c-16 13 -41 33 -55 45 l-25 21 42 -2 c23 -1 46 1 49 5 4 4
21 7 37 7 l30 0 -23 -25z m4210 -291 c0 -8 -4 -13 -9 -9 -6 3 -14 -2 -19 -12
-13 -22 -2 -51 49 -129 51 -79 60 -125 30 -165 l-22 -29 20 -43 c77 -169 101
-234 96 -257 -5 -23 -4 -23 9 -7 12 15 16 7 40 -80 15 -54 41 -152 59 -219 25
-90 31 -126 24 -142 -6 -12 -13 -22 -17 -22 -4 0 -18 41 -31 90 -25 98 -25 98
-94 79 -71 -18 -70 -17 -50 -39 10 -11 33 -24 52 -31 46 -15 41 -44 -13 -82
-77 -54 -169 -31 -211 53 -53 103 -20 184 119 301 67 57 70 30 5 -39 -74 -77
-90 -112 -85 -178 8 -90 69 -148 132 -124 l26 10 -45 41 c-25 23 -45 50 -45
61 0 11 18 36 40 55 22 20 40 39 40 42 0 4 -10 11 -22 16 -33 14 -33 74 0 86
18 7 28 4 48 -16 27 -27 30 -48 10 -87 l-14 -26 32 10 c17 6 32 12 34 13 1 1
-10 47 -25 101 -17 61 -36 109 -51 126 -75 84 -220 90 -280 13 -24 -30 -32
-79 -10 -57 19 19 46 14 64 -13 28 -43 -8 -91 -59 -77 -26 7 -57 60 -57 98 0
94 135 180 244 155 27 -6 50 -10 52 -8 8 7 -57 148 -103 224 l-49 81 -46 -25
c-61 -34 -67 -50 -23 -69 19 -7 41 -14 50 -14 26 0 29 -30 7 -75 -36 -73 -125
-97 -193 -51 -68 46 -88 140 -49 222 27 54 143 166 148 142 2 -9 -14 -34 -35
-55 -50 -50 -73 -100 -73 -157 0 -36 6 -52 31 -80 38 -44 90 -57 119 -31 26
24 25 35 -2 35 -35 0 -85 35 -90 62 -8 41 8 64 71 102 l60 37 -39 65 c-38 61
-50 107 -32 118 5 3 46 -60 93 -139 46 -80 90 -145 97 -145 23 0 12 45 -24 99
-20 29 -43 69 -51 89 -17 42 -10 97 15 111 26 15 52 13 52 -5z m-4490 -28 c0
-3 -35 -60 -77 -127 l-77 -122 24 -16 c13 -9 40 -26 61 -38 l37 -23 -5 39 c-3
22 -2 69 1 104 7 61 9 65 44 81 36 18 37 18 51 -6 32 -50 120 -127 160 -139
33 -10 39 -15 30 -26 -7 -8 -20 -11 -33 -7 -49 14 -133 57 -157 80 l-26 25 -6
-30 c-7 -34 6 -120 23 -151 11 -21 8 -24 -34 -34 -24 -6 -43 2 -112 44 l-84
50 -20 -20 c-11 -11 -17 -20 -12 -20 4 0 6 -20 4 -44 -6 -65 13 -110 65 -156
51 -45 99 -58 143 -40 30 12 56 37 29 28 -25 -9 -49 11 -49 41 0 36 20 53 57
49 57 -6 62 -88 8 -135 -33 -29 -85 -38 -143 -23 -60 15 -105 49 -138 106
l-27 46 -28 -64 c-47 -109 -79 -85 286 -222 6 -2 -2 -9 -17 -16 -25 -12 -40
-8 -158 35 -124 45 -131 46 -155 31 -29 -19 -60 -75 -48 -86 4 -4 78 -24 163
-45 201 -48 187 -43 164 -60 -25 -19 -39 -19 -145 7 -100 24 -124 19 -124 -23
0 -17 6 -25 23 -27 27 -4 30 -32 3 -32 -28 0 -61 -47 -61 -86 0 -44 37 -72 71
-54 l21 12 -23 12 c-27 13 -37 59 -18 82 14 17 60 19 77 2 35 -35 -8 -135 -64
-151 -42 -12 -98 13 -119 53 -19 36 -8 85 24 114 16 14 17 22 8 46 -9 22 -7
33 6 54 10 14 25 26 35 27 9 0 2 5 -17 11 -18 5 -37 6 -41 1 -4 -4 -22 -71
-40 -148 -31 -131 -51 -175 -80 -175 -8 0 81 368 102 425 6 17 22 42 35 56
l24 26 -41 12 c-44 13 -45 31 -1 31 24 0 30 7 51 58 47 113 93 204 107 209 11
4 11 8 3 13 -16 10 175 318 204 330 24 10 36 12 36 6z m4793 -1196 c-2 -14
-13 -35 -24 -46 l-20 -21 30 -31 c41 -40 40 -76 -1 -126 l-31 -38 29 5 c104
21 107 21 95 -2 -7 -11 -16 -21 -21 -21 -5 0 -19 -18 -31 -40 -24 -43 -27 -44
-34 -10 -2 12 -7 25 -10 28 -3 3 -82 -1 -175 -9 -94 -8 -170 -11 -170 -7 0 22
43 48 78 48 94 1 178 13 202 29 33 24 48 65 30 86 -11 14 -15 12 -32 -15 -22
-38 -42 -46 -73 -32 -32 15 -42 55 -22 86 15 22 15 25 -3 41 -24 22 -26 52 -3
77 24 27 61 22 93 -12 28 -30 29 -30 39 -11 6 11 11 37 11 57 0 22 7 46 18 57
17 19 17 18 23 -24 4 -24 4 -55 2 -69z m-5185 -26 c32 -22 43 -55 31 -98 -27
-100 -159 -81 -159 23 0 32 6 44 31 65 35 30 65 33 97 10z m213 -54 c-33 -38
-68 -81 -77 -96 -14 -21 -23 -24 -51 -21 -19 3 -36 7 -39 10 -14 14 178 177
209 177 13 0 2 -18 -42 -70z m-293 -200 c49 -1 317 -12 319 -14 1 0 -5 -10
-13 -20 -12 -17 -26 -19 -148 -17 -80 1 -143 -2 -155 -8 -23 -13 -44 -71 -35
-96 6 -15 16 -16 88 -11 45 4 117 9 161 12 44 3 86 7 93 9 25 8 11 -11 -39
-54 -55 -47 -88 -107 -89 -157 0 -20 -10 -39 -30 -59 -29 -27 -30 -28 -49 -11
-11 10 -41 60 -67 112 -26 52 -52 94 -57 94 -4 0 -6 -24 -3 -52 18 -177 18
-213 -2 -231 -19 -17 -20 -16 -26 50 -27 295 -27 364 -2 392 l20 22 -47 -5
c-53 -5 -63 9 -17 25 17 6 30 18 30 27 0 8 8 24 18 35 17 19 17 19 20 -12 3
-26 7 -31 30 -31z m5292 -217 c-17 -213 -19 -226 -40 -248 -20 -19 -20 -19
-20 13 0 28 -3 32 -27 33 -16 1 -32 2 -38 3 -5 1 -64 5 -130 9 -150 10 -166
13 -159 32 5 11 22 15 63 15 66 0 128 26 159 65 29 37 30 60 1 45 -16 -9 -26
-8 -45 5 -49 32 -20 125 40 125 35 0 74 -36 82 -76 9 -46 -10 -87 -58 -129
l-40 -33 54 -7 c106 -13 102 -18 113 126 8 102 14 131 29 148 11 12 21 19 23
17 3 -2 -1 -66 -7 -143z m-5107 -428 c25 -32 33 -35 78 -35 l51 0 -26 -44
c-25 -43 -25 -44 -9 -85 9 -23 14 -43 12 -45 -2 -3 -25 1 -52 7 -45 10 -49 9
-75 -16 -41 -39 -52 -35 -52 21 0 44 -2 49 -40 72 -22 14 -40 28 -40 31 0 4
20 12 45 19 39 11 46 17 55 49 5 20 10 42 10 49 0 21 14 14 43 -23z m4880 0
c25 -32 33 -35 77 -35 28 0 50 -2 50 -5 0 -3 -11 -23 -25 -44 l-26 -38 21 -48
20 -47 -22 6 c-67 20 -93 18 -117 -8 -38 -40 -51 -34 -51 23 0 47 -2 50 -42
74 l-43 26 37 15 c21 9 42 16 47 16 10 0 31 61 31 88 0 21 14 14 43 -23z
m-4523 -505 c90 -179 202 -346 322 -481 36 -41 58 -75 58 -89 0 -23 1 -23 35
10 35 33 45 28 24 -12 -8 -14 -8 -23 0 -31 6 -6 11 -24 11 -41 l0 -29 -25 23
-26 24 -124 -124 c-109 -109 -125 -121 -125 -99 0 20 23 49 95 120 83 80 95
97 95 126 0 70 -52 49 -143 -58 -69 -82 -110 -100 -170 -75 -50 20 -52 49 -2
33 48 -14 78 3 126 75 46 67 71 86 122 95 l38 6 -37 33 c-20 19 -38 34 -40 34
-3 0 -55 -38 -117 -83 -62 -46 -125 -92 -140 -102 -27 -17 -27 -17 -27 8 0 20
18 38 90 91 50 36 90 70 90 75 0 37 -33 54 -58 29 -17 -17 -25 -3 -12 22 23
43 -10 100 -59 100 -32 0 -51 -16 -51 -44 0 -16 3 -17 12 -8 33 33 87 -4 73
-49 -9 -26 -50 -42 -75 -29 -46 25 -57 106 -20 145 62 66 160 44 160 -36 0
-19 5 -29 15 -29 27 0 57 -39 50 -67 l-6 -25 25 19 c14 10 26 21 26 24 0 3
-34 52 -75 108 -41 56 -91 133 -111 171 -21 39 -40 70 -43 70 -3 0 -5 -21 -3
-47 2 -34 -3 -57 -17 -80 -52 -83 -157 -89 -149 -9 3 27 7 31 33 31 22 0 33
-6 40 -22 5 -13 12 -23 16 -23 6 0 24 33 32 60 2 8 1 25 -4 38 -8 22 -10 22
-130 -38 -67 -34 -123 -59 -126 -57 -2 3 7 22 20 44 35 53 50 108 44 155 -4
27 0 52 11 74 l16 34 45 -26 c25 -15 68 -44 94 -66 27 -22 51 -37 55 -34 3 4
-16 51 -42 105 -37 74 -47 103 -41 121 7 23 8 23 22 4 8 -10 54 -98 103 -194z
m4170 -29 c-50 -100 -95 -181 -101 -181 -5 0 -9 -6 -9 -14 0 -8 65 -56 144
-107 135 -88 155 -108 104 -109 -9 0 -71 36 -139 81 -139 92 -149 97 -149 76
0 -8 -7 -20 -15 -27 -8 -7 -15 -15 -15 -19 0 -3 63 -55 140 -116 77 -60 140
-113 140 -117 0 -5 -13 -8 -29 -8 -20 0 -53 19 -114 69 -61 50 -97 71 -126 76
-62 10 -110 -23 -111 -78 l0 -29 26 31 c49 59 106 34 129 -56 15 -57 13 -63
-25 -63 -26 0 -29 3 -35 50 -4 27 -11 53 -17 56 -13 8 -28 -15 -28 -44 0 -33
-42 -50 -74 -29 -49 33 -42 118 14 172 25 24 38 29 75 28 25 -1 45 -1 45 1 0
1 -25 20 -55 42 -30 21 -55 42 -55 47 0 10 18 9 40 -3 15 -8 23 -5 40 18 l22
27 -26 3 c-64 8 -91 127 -43 188 37 49 70 73 126 94 82 32 110 21 36 -13 -75
-35 -112 -70 -125 -119 -16 -58 4 -118 39 -118 21 0 44 36 134 210 48 93 83
149 98 157 13 7 25 10 27 8 2 -2 -38 -85 -88 -184z m235 65 c39 -25 58 -63 58
-112 0 -56 -24 -91 -84 -122 -40 -21 -53 -23 -144 -19 -55 3 -108 8 -117 12
-37 15 -5 24 80 23 48 -1 98 2 112 7 74 23 116 94 89 151 -17 34 -61 58 -94
50 -34 -9 -40 -35 -10 -46 13 -5 29 -19 35 -31 10 -18 9 -26 -8 -48 -31 -41
-91 -41 -113 1 -53 99 95 200 196 134z m-680 -576 c3 -5 26 -7 53 -4 l47 6
-22 -22 -22 -23 102 -109 c56 -59 111 -111 122 -114 34 -11 48 -26 33 -35 -19
-13 -62 -11 -76 3 -9 9 -24 0 -65 -44 -63 -69 -95 -83 -140 -64 -18 7 -41 23
-51 35 -19 21 -19 21 2 21 11 0 24 -4 27 -10 14 -23 57 -8 109 39 29 27 60 51
67 53 18 6 -60 96 -104 121 -68 37 -147 5 -147 -60 1 -24 2 -25 11 -10 5 9 22
23 38 31 53 28 99 -23 100 -111 1 -31 -1 -33 -35 -33 -35 0 -36 0 -34 43 3 66
1 79 -12 75 -6 -2 -17 -20 -23 -39 -10 -28 -17 -35 -42 -37 -58 -6 -83 71 -43
135 34 57 97 75 165 48 11 -4 -6 16 -37 44 -32 29 -58 57 -58 62 0 12 27 12
35 -1z m-3195 -155 c36 -18 50 -43 50 -87 l1 -33 45 50 46 50 -6 -40 c-4 -22
-2 -55 3 -72 11 -37 9 -39 -23 -18 -22 15 -25 12 -132 -115 -60 -71 -112 -130
-116 -130 -5 0 -8 12 -8 28 0 18 18 47 56 92 97 112 114 157 78 208 -32 46
-114 17 -114 -41 0 -17 2 -17 15 -3 18 18 41 11 55 -14 21 -39 -20 -77 -63
-61 -60 23 -75 98 -30 151 42 51 90 62 143 35z m3053 -72 c4 -3 -4 -14 -18
-23 l-25 -17 95 -137 c53 -76 99 -145 102 -153 4 -10 -13 -4 -49 16 -66 37
-94 40 -102 8 -3 -12 -19 -36 -36 -52 -25 -24 -38 -29 -78 -28 -61 1 -127 30
-181 78 -70 64 -50 76 30 18 42 -30 63 -38 108 -41 49 -4 59 -1 84 22 35 33
36 78 2 111 -13 14 -35 25 -49 25 -24 0 -24 -1 -11 -26 34 -66 -51 -121 -91
-59 -33 51 22 119 96 119 47 0 87 -26 109 -72 11 -21 23 -32 39 -32 21 0 17 8
-39 90 l-62 89 -96 -67 c-53 -36 -115 -79 -138 -95 -32 -23 -48 -28 -68 -23
-29 7 -35 2 305 238 26 18 62 23 73 11z m-1160 -364 c45 -23 97 -67 97 -82 0
-6 -8 -3 -17 5 -89 78 -238 74 -275 -6 -29 -65 4 -69 241 -27 128 23 169 26
183 18 17 -11 25 -27 12 -27 -12 0 -299 -53 -302 -55 -2 -2 -1 -23 3 -47 l7
-44 42 43 c53 53 83 56 120 12 24 -28 27 -29 47 -15 43 30 70 -8 88 -121 6
-39 15 -83 21 -97 7 -20 6 -26 -4 -26 -30 0 -50 42 -73 153 -7 35 -10 37 -27
24 -18 -13 -18 -16 -1 -111 10 -53 15 -100 11 -103 -3 -3 -21 11 -40 31 -25
28 -44 39 -73 43 -22 3 -50 13 -64 24 l-24 18 58 58 c55 56 69 85 47 98 -5 3
-20 -1 -32 -9 -21 -15 -72 -83 -81 -109 -3 -8 -10 -7 -24 6 -14 12 -24 42 -33
92 l-13 75 -35 0 -35 0 7 -82 c21 -292 21 -271 -2 -259 -24 13 -29 40 -38 211
-3 69 -7 125 -8 126 0 1 -17 -1 -37 -3 l-36 -5 -7 -96 c-9 -139 -7 -240 3
-223 7 11 13 8 27 -14 l18 -28 -34 -30 c-32 -29 -33 -30 -14 -44 10 -8 40 -26
67 -39 33 -17 47 -30 47 -45 0 -18 -9 -15 -97 32 -54 28 -102 56 -107 60 -6 5
6 22 29 42 l39 34 -17 45 c-10 25 -29 55 -42 68 -24 23 -25 23 -57 6 -61 -33
-118 17 -90 79 11 23 62 42 82 30 5 -3 10 -1 10 5 0 27 -24 51 -70 71 -27 11
-56 29 -66 40 -21 24 -41 24 -48 2 -2 -10 -14 -81 -26 -158 -12 -77 -24 -149
-27 -159 -5 -18 -7 -17 -19 7 -12 21 -12 40 -3 97 12 78 0 130 -29 130 -8 0
-37 -20 -63 -45 -26 -25 -57 -45 -68 -45 -23 0 -71 54 -71 80 0 29 27 32 34 4
8 -31 17 -30 56 2 24 21 30 33 28 58 -2 25 -11 35 -52 56 -43 23 -95 75 -85
85 2 2 69 -8 149 -21 217 -38 611 -53 556 -22 -31 17 -20 68 24 109 21 21 50
40 62 42 40 9 107 -2 151 -24z"/>
<path d="M3136 5515 c-32 -13 -60 -26 -62 -28 -3 -3 11 -15 30 -27 20 -12 47
-35 60 -52 l24 -31 7 77 c4 42 6 79 3 81 -2 2 -30 -7 -62 -20z"/>
<path d="M2437 5454 c-51 -37 -53 -48 -10 -59 16 -3 45 -17 66 -31 20 -13 37
-21 37 -17 0 7 -11 57 -25 121 -7 29 -11 28 -68 -14z"/>
<path d="M2038 5442 c-38 -15 -68 -30 -68 -33 0 -4 12 -9 28 -12 41 -9 91 -44
110 -77 9 -16 33 -35 54 -43 l37 -15 -21 52 c-11 28 -29 75 -40 104 -12 28
-24 52 -27 51 -3 0 -36 -12 -73 -27z"/>
<path d="M3973 4628 c-14 -23 -14 -50 -1 -42 10 6 9 3 0 -9 -12 -14 -9 -18 20
-30 18 -8 48 -29 67 -46 19 -17 37 -29 39 -26 3 3 12 -4 19 -15 8 -11 19 -18
24 -14 5 3 8 0 7 -8 -2 -7 3 -12 9 -11 7 2 12 -3 10 -10 -1 -6 4 -11 10 -10 7
2 12 -1 10 -6 -1 -4 29 -40 67 -79 47 -47 75 -68 85 -64 13 5 14 3 4 -9 -9
-11 -8 -18 3 -33 8 -11 14 -17 14 -13 0 4 10 -1 22 -13 12 -11 25 -20 28 -20
3 0 17 -19 30 -42 13 -24 31 -49 39 -56 9 -8 10 -10 2 -6 -10 5 -11 1 -6 -15
32 -102 20 -368 -21 -475 -5 -14 -4 -17 4 -12 7 4 12 2 12 -3 0 -6 -7 -11 -16
-11 -11 0 -14 -5 -10 -16 3 -9 6 -18 6 -20 0 -3 4 -2 10 1 6 3 7 -1 3 -10 -5
-13 -7 -14 -14 -3 -8 12 -13 4 -10 -15 1 -4 -4 -18 -11 -30 -11 -21 -10 -21 8
-7 19 14 19 14 0 -8 -16 -18 -19 -38 -20 -115 0 -54 6 -108 14 -132 19 -55 20
-63 4 -61 -19 3 -27 13 -31 39 -2 12 -6 29 -10 37 -3 8 -5 23 -4 34 2 13 -1
16 -11 10 -11 -6 -11 -5 0 8 7 9 9 19 4 22 -5 3 -6 26 -1 53 19 116 26 181 24
218 -2 23 0 34 5 26 12 -21 32 49 49 174 13 90 5 243 -14 261 -8 9 -15 21 -15
27 0 7 5 6 11 -3 9 -12 9 -11 4 5 -4 11 -10 28 -12 37 -3 10 -9 15 -14 12 -5
-3 -6 1 -3 9 3 9 -7 23 -25 37 -26 18 -31 19 -31 6 0 -9 -4 -16 -10 -16 -5 0
-7 8 -4 18 5 14 3 14 -11 -3 -24 -28 -57 -103 -50 -114 3 -5 1 -11 -5 -13 -11
-3 -19 -64 -25 -193 -3 -49 -8 -115 -12 -145 -4 -30 -7 -61 -6 -67 0 -7 -4
-13 -9 -13 -5 0 -7 -8 -3 -19 3 -11 -1 -24 -11 -32 -10 -8 -35 -52 -56 -99
-22 -47 -46 -100 -55 -119 -13 -28 -13 -35 -2 -42 11 -7 11 -9 -2 -9 -11 0
-20 -15 -28 -44 -6 -24 -14 -51 -18 -61 -5 -13 -3 -16 6 -10 9 5 8 -1 -2 -16
-17 -25 -38 -136 -38 -197 1 -131 4 -178 16 -217 7 -24 10 -46 8 -49 -3 -3 -2
-13 2 -23 4 -10 9 -27 11 -38 1 -11 14 -75 29 -143 14 -68 23 -127 20 -133 -4
-5 -1 -9 5 -9 7 0 10 -7 6 -15 -3 -8 -1 -15 4 -15 6 0 10 -13 10 -28 0 -16 3
-32 7 -35 3 -4 7 -19 9 -34 12 -151 16 -189 22 -197 3 -6 7 -29 9 -51 8 -89
-4 -80 118 -82 61 -1 145 0 188 4 66 4 77 8 77 23 0 11 -4 21 -9 24 -5 3 -7
14 -5 24 3 9 -4 34 -14 54 -11 21 -15 35 -9 31 6 -4 8 0 4 10 -3 8 -9 32 -13
51 -3 20 -10 38 -14 41 -5 3 -6 14 -3 25 3 11 1 20 -5 20 -6 0 -11 8 -11 18 0
23 -9 147 -11 147 -10 0 -14 193 -5 265 2 19 13 70 25 114 11 43 17 83 13 89
-3 6 -1 7 5 3 16 -9 92 236 84 268 -2 4 2 13 7 20 6 6 15 43 21 81 6 39 18 99
28 135 20 76 22 260 4 283 -7 8 -9 16 -6 19 3 3 -2 23 -12 44 -9 22 -19 47
-20 57 -2 10 -10 28 -18 40 -7 12 -24 54 -37 92 -13 39 -27 73 -32 76 -4 3 -5
14 -1 24 5 11 4 16 -3 12 -6 -4 -8 3 -5 18 3 17 -1 27 -12 31 -9 3 -16 10 -16
16 0 5 4 7 9 3 6 -3 6 8 0 27 -6 18 -13 41 -16 51 -3 9 -10 17 -15 17 -5 0 -7
4 -4 9 7 10 -46 87 -83 119 -14 13 -26 27 -26 30 0 4 -3 6 -8 4 -4 -1 -6 4 -5
10 2 7 -3 12 -10 10 -8 -1 -11 2 -8 7 8 12 -20 34 -33 27 -5 -4 -13 -1 -17 5
-4 8 -3 9 4 5 7 -4 12 -2 12 3 0 6 -5 11 -11 11 -5 0 -8 4 -5 8 7 12 -169 183
-179 174 -5 -4 -5 -1 -1 6 5 9 1 15 -13 19 -12 3 -21 10 -21 15 0 5 -4 7 -9 4
-5 -3 -12 1 -15 10 -3 8 -10 12 -16 9 -5 -3 -10 -1 -10 4 0 15 -27 14 -37 -1z
m82 -48 c3 -6 -1 -7 -9 -4 -18 7 -21 14 -7 14 6 0 13 -4 16 -10z m5 -36 c0 -8
-19 -13 -24 -6 -3 5 1 9 9 9 8 0 15 -2 15 -3z m88 -28 c9 -5 10 -11 3 -20 -6
-7 -7 -17 -3 -21 4 -5 1 -5 -6 -1 -9 6 -10 11 -3 20 14 16 2 29 -14 16 -8 -7
-12 -5 -12 4 0 15 14 16 35 2z m67 -66 c10 -11 16 -20 13 -20 -3 0 -13 9 -23
20 -10 11 -16 20 -13 20 3 0 13 -9 23 -20z m41 -96 c2 -23 1 -24 -11 -7 -10
13 -10 20 -2 25 7 4 12 8 12 8 0 0 1 -11 1 -26z m167 -144 c10 -12 9 -12 -4
-2 -10 8 -19 8 -26 1 -6 -6 -10 -5 -10 5 0 17 23 15 40 -4z m30 -45 c4 -8 3
-16 -1 -19 -4 -3 -9 4 -9 15 -2 23 3 25 10 4z m-173 -295 c0 -5 -2 -10 -4 -10
-3 0 -8 5 -11 10 -3 6 -1 10 4 10 6 0 11 -4 11 -10z m280 -94 c0 -3 -4 -8 -10
-11 -5 -3 -10 -1 -10 4 0 6 5 11 10 11 6 0 10 -2 10 -4z m-407 -451 c-3 -9 -8
-14 -10 -11 -3 3 -2 9 2 15 9 16 15 13 8 -4z m324 -180 c0 -8 -4 -12 -9 -9 -5
3 -6 10 -3 15 9 13 12 11 12 -6z m-160 -1251 c-3 -3 -12 -4 -19 -1 -8 3 -5 6
6 6 11 1 17 -2 13 -5z"/>
<path d="M1963 4610 c-24 -11 -43 -22 -43 -25 0 -3 5 -3 12 1 7 4 8 3 4 -5 -4
-6 -11 -9 -16 -6 -10 6 -80 -36 -80 -48 0 -5 6 -5 13 -1 7 4 8 3 4 -2 -5 -5
-16 -9 -25 -9 -9 0 -16 -6 -14 -13 1 -8 -2 -11 -8 -7 -18 11 -62 -24 -55 -43
3 -9 3 -13 -1 -9 -4 4 -16 -1 -27 -10 -15 -13 -18 -14 -12 -3 5 8 -2 5 -16 -7
-13 -12 -41 -36 -61 -53 -21 -18 -35 -37 -31 -43 3 -5 1 -7 -4 -4 -11 7 -187
-152 -179 -161 3 -2 -6 -18 -20 -35 -16 -20 -23 -36 -18 -49 3 -12 2 -18 -3
-15 -9 6 -36 -62 -32 -80 1 -4 0 -15 -4 -23 -4 -13 -19 -67 -32 -122 -2 -9 -9
-26 -15 -38 -6 -11 -8 -24 -5 -29 3 -5 0 -11 -7 -13 -7 -3 -13 -18 -14 -34 -1
-16 -7 -28 -13 -26 -13 2 -34 -45 -26 -58 3 -5 0 -10 -7 -12 -7 -3 -13 -30
-14 -69 -2 -35 -4 -66 -5 -69 -9 -31 28 -153 43 -144 7 4 8 2 4 -4 -8 -13 10
-51 33 -70 12 -11 13 -12 1 -6 -12 6 -13 5 -3 -7 6 -8 25 -51 43 -97 17 -45
38 -89 46 -97 9 -8 13 -15 9 -15 -7 0 43 -89 58 -105 7 -7 7 -5 2 4 -5 9 -4
12 3 7 6 -4 9 -12 6 -19 -2 -7 4 -22 14 -32 10 -11 20 -24 23 -30 2 -5 7 -9
11 -8 4 2 5 -4 2 -12 -3 -7 4 -22 15 -32 12 -9 21 -23 21 -31 0 -7 11 -24 25
-38 13 -13 26 -28 27 -32 2 -4 8 -7 15 -7 6 0 15 -4 20 -8 4 -5 3 -8 -2 -7
-24 5 -27 -1 -9 -16 10 -8 13 -13 7 -9 -18 9 -16 -1 4 -21 10 -9 18 -22 19
-28 0 -6 2 -17 2 -24 1 -7 7 -10 14 -6 6 4 8 3 5 -3 -4 -6 0 -30 9 -54 9 -24
17 -51 19 -59 2 -8 4 -17 6 -20 4 -9 7 -24 8 -43 1 -12 5 -16 14 -11 9 6 9 5
-1 -8 -9 -11 -10 -32 -3 -79 5 -36 5 -69 0 -75 -5 -6 -11 -21 -13 -35 -3 -13
-5 -26 -6 -29 -1 -3 -3 -9 -4 -15 -1 -5 -8 -23 -14 -39 -7 -16 -10 -31 -7 -34
2 -3 0 -11 -6 -18 -6 -8 -15 -28 -19 -46 -4 -18 -11 -42 -15 -53 -7 -20 -6
-20 9 -1 9 11 16 15 16 8 0 -6 -9 -20 -21 -31 -12 -11 -18 -24 -15 -29 3 -6 0
-12 -6 -15 -32 -11 10 -16 186 -21 104 -3 191 -8 194 -11 3 -3 12 -5 21 -4 12
0 11 3 -4 10 -17 8 -16 8 5 3 14 -4 57 -7 95 -8 l70 -1 26 215 c24 192 31 242
46 315 19 96 24 129 19 140 -2 7 -1 16 4 21 4 5 10 29 13 54 3 25 9 68 12 96
5 33 3 59 -5 74 -7 12 -8 20 -2 17 9 -6 6 33 -5 63 -4 8 -5 20 -4 26 1 7 -4
25 -10 40 -7 16 -13 36 -15 45 -6 29 -45 114 -61 131 -9 10 -20 15 -26 11 -6
-3 -7 -1 -3 6 4 6 12 8 18 5 6 -4 5 2 -2 15 -6 12 -16 18 -22 15 -6 -4 -8 -3
-5 4 10 15 -3 43 -16 35 -6 -3 -7 -1 -3 5 4 6 -8 26 -26 43 -18 18 -26 28 -19
24 23 -13 -27 56 -68 94 -20 18 -29 30 -21 25 8 -4 -6 13 -31 39 -26 25 -46
47 -44 49 1 2 -11 14 -28 28 -17 14 -27 19 -23 11 6 -10 5 -12 -3 -7 -6 4 -9
12 -5 17 3 6 -2 17 -12 25 -11 9 -13 13 -4 9 10 -4 9 -2 -2 8 -10 8 -15 17
-11 20 3 4 1 7 -6 7 -7 0 -9 5 -6 10 3 6 1 10 -4 10 -6 0 -11 8 -11 18 0 10
-5 23 -12 30 -7 7 -9 12 -5 12 3 0 2 11 -3 25 -5 14 -12 55 -14 92 -3 38 -11
70 -18 75 -7 4 -10 8 -5 8 8 0 -17 64 -39 98 -13 20 -18 21 -32 10 -15 -11
-15 -10 1 8 18 21 14 34 -10 34 -8 0 -11 -4 -8 -10 4 -6 -1 -7 -11 -3 -13 5
-15 3 -9 -7 6 -9 4 -11 -5 -5 -10 6 -7 12 9 24 22 17 22 17 3 35 -21 18 -40 7
-26 -16 4 -7 3 -8 -5 -4 -6 4 -9 16 -6 26 7 22 -17 33 -35 17 -10 -9 -11 -9
-6 1 6 9 1 11 -16 8 -34 -6 -78 -28 -78 -38 0 -5 5 -6 12 -2 7 4 8 3 4 -4 -4
-6 -13 -9 -21 -6 -14 6 -41 -33 -31 -43 3 -4 1 -12 -5 -20 -11 -13 -8 -78 6
-143 3 -14 8 -38 10 -55 7 -46 38 -129 55 -143 10 -9 11 -11 1 -6 -8 4 -6 -4
6 -22 33 -47 57 -89 52 -89 -2 -1 4 -14 15 -29 10 -16 28 -57 40 -92 13 -35
25 -62 27 -59 5 5 6 -3 12 -116 4 -87 -7 -115 -44 -104 -14 5 -18 10 -10 14 6
4 9 15 5 24 -3 9 -2 17 4 17 12 0 6 89 -11 148 -6 23 -15 42 -19 42 -4 0 -4 7
-1 17 5 12 3 14 -7 8 -9 -5 -11 -4 -6 3 8 14 -27 95 -38 85 -4 -4 -4 0 0 10 4
11 1 17 -7 17 -7 0 -10 3 -6 6 3 4 -9 31 -28 60 -19 30 -35 59 -35 65 0 6 -4
7 -10 4 -5 -3 -7 0 -4 8 2 7 -4 35 -15 60 -11 26 -18 47 -14 47 3 0 -2 12 -12
26 -9 15 -12 23 -5 19 9 -6 10 -1 4 16 -11 33 -11 228 0 226 5 -1 11 4 14 12
3 10 0 11 -9 5 -11 -6 -12 -5 -2 8 7 8 9 19 5 23 -4 5 -1 5 6 1 7 -4 9 -12 5
-19 -3 -6 9 1 29 16 19 15 42 27 51 27 9 0 19 5 22 10 4 6 10 8 15 5 11 -7 22
24 13 37 -3 6 -2 8 4 5 11 -7 136 116 128 126 -3 4 -2 5 2 2 3 -3 25 12 48 33
23 20 56 49 73 63 17 15 29 29 26 32 -3 3 3 4 13 4 12 -1 17 4 15 15 -1 9 2
19 8 23 6 3 7 0 4 -9 -3 -9 -1 -16 5 -16 6 0 11 4 11 8 0 4 16 14 36 21 28 10
33 15 23 23 -10 7 -8 8 8 3 14 -4 28 0 40 12 10 10 30 20 43 21 45 6 61 43 33
74 -21 23 -66 22 -120 -2z m12 -20 c-3 -5 -1 -10 4 -10 6 0 11 -5 11 -11 0 -8
-5 -8 -15 1 -13 11 -12 30 1 30 3 0 2 -4 -1 -10z m110 0 c-3 -5 -12 -10 -18
-10 -7 0 -6 4 3 10 19 12 23 12 15 0z m-190 -40 c-3 -5 -12 -10 -18 -10 -7 0
-6 4 3 10 19 12 23 12 15 0z m-100 -70 c-3 -5 -12 -10 -18 -10 -7 0 -6 4 3 10
19 12 23 12 15 0z m-54 -83 c-6 -8 -9 -16 -6 -19 3 -3 -1 -11 -10 -18 -8 -7
-15 -17 -15 -23 0 -6 12 0 28 14 l27 24 -24 -28 c-28 -31 -48 -22 -29 14 20
36 29 49 35 49 3 0 0 -6 -6 -13z m-81 -21 c0 -2 -8 -10 -17 -17 -16 -13 -17
-12 -4 4 13 16 21 21 21 13z m-70 -119 c0 -4 -6 -2 -14 5 -8 7 -12 17 -9 22 5
8 23 -12 23 -27z m80 30 c0 -2 -10 -12 -22 -23 l-23 -19 19 23 c18 21 26 27
26 19z m-120 -33 c0 -8 -19 -13 -24 -6 -3 5 1 9 9 9 8 0 15 -2 15 -3z m-37
-37 c3 -7 -3 -13 -14 -14 -15 -1 -16 1 -6 12 15 18 14 18 20 2z m66 -4 c-37
-47 -47 -55 -54 -42 -6 8 -4 10 5 4 10 -6 12 -4 7 9 -4 9 -3 15 2 12 4 -3 16
3 26 14 22 25 33 26 14 3z m-77 -27 c10 5 10 4 1 -6 -9 -10 -15 -10 -26 -2 -8
7 -18 8 -22 4 -5 -4 -5 -1 -1 6 6 10 11 10 21 2 8 -7 20 -8 27 -4z m22 -34 c3
-5 -1 -9 -9 -9 -8 0 -12 4 -9 9 3 4 7 8 9 8 2 0 6 -4 9 -8z m-170 -318 c3 -8
2 -12 -4 -9 -6 3 -10 10 -10 16 0 14 7 11 14 -7z m34 -89 c-3 -3 -9 2 -12 12
-6 14 -5 15 5 6 7 -7 10 -15 7 -18z m415 -110 c-3 -9 -8 -14 -10 -11 -3 3 -2
9 2 15 9 16 15 13 8 -4z m-248 -15 c3 -5 1 -10 -4 -10 -6 0 -11 5 -11 10 0 6
2 10 4 10 3 0 8 -4 11 -10z m35 -36 c0 -8 -19 -13 -24 -6 -3 5 1 9 9 9 8 0 15
-2 15 -3z m-312 -169 c-3 -3 -9 2 -12 12 -6 14 -5 15 5 6 7 -7 10 -15 7 -18z
m751 -79 c9 -10 7 -17 -6 -27 -16 -12 -17 -12 -6 2 10 12 10 18 1 27 -7 7 -9
12 -6 12 3 0 11 -6 17 -14z m75 -94 c3 -5 -1 -9 -9 -9 -8 0 -12 4 -9 9 3 4 7
8 9 8 2 0 6 -4 9 -8z m-510 -484 c-3 -4 -11 -5 -19 -1 -21 7 -19 12 4 10 11 0
18 -5 15 -9z"/>
<path d="M2083 4506 c-4 -5 -1 -6 7 -1 9 6 11 4 5 -4 -5 -9 -10 -10 -18 -2 -7
7 -22 3 -50 -12 -22 -12 -66 -36 -96 -52 -31 -17 -55 -36 -54 -43 2 -6 0 -11
-5 -10 -15 5 -52 -23 -46 -35 4 -7 4 -9 -1 -5 -12 11 -80 -53 -80 -76 0 -10
-8 -20 -18 -22 -9 -1 -15 2 -11 7 3 5 10 6 16 3 7 -5 8 -2 3 6 -6 10 -15 4
-36 -21 -15 -18 -25 -37 -23 -41 2 -3 0 -9 -5 -13 -6 -3 -8 -12 -5 -20 4 -8
11 -12 17 -8 6 3 7 1 3 -6 -4 -6 -11 -9 -16 -6 -4 3 -10 -1 -13 -7 -3 -7 -4
-2 -3 12 1 14 6 31 10 38 10 16 -2 15 -19 -2 -8 -7 -11 -16 -8 -20 4 -3 2 -6
-4 -6 -16 0 -24 -28 -11 -36 7 -5 8 -2 4 7 -6 10 -4 10 6 -1 7 -8 29 -23 47
-33 28 -15 32 -15 27 -2 -3 8 0 15 5 15 6 0 9 -9 6 -20 -3 -11 3 -30 14 -44
10 -13 19 -29 19 -35 0 -15 11 -13 34 4 10 8 16 21 13 29 -4 10 -1 13 8 10 17
-7 50 41 39 57 -4 7 -3 9 2 6 6 -3 14 -3 20 1 16 12 86 111 88 127 1 8 6 18
11 22 4 4 5 2 1 -4 -9 -17 4 -16 28 2 10 7 15 18 11 24 -4 7 0 8 11 4 12 -4
15 -3 10 5 -4 7 -2 12 6 12 21 1 70 49 62 62 -5 7 -3 8 5 4 8 -5 14 0 18 13 3
11 9 19 13 16 11 -7 22 24 13 37 -3 7 -1 8 5 4 16 -10 15 7 0 23 -9 10 -9 12
-1 7 20 -11 24 10 5 27 -19 17 -60 19 -69 3z m-132 -99 c-10 -9 -11 -8 -5 6 3
10 9 15 12 12 3 -3 0 -11 -7 -18z m79 -22 c0 -12 -19 -12 -23 0 -4 9 -1 12 9
8 7 -3 14 -7 14 -8z m-160 -19 c0 -2 -7 -7 -16 -10 -8 -3 -12 -2 -9 4 6 10 25
14 25 6z m65 -135 c3 -5 2 -12 -3 -15 -5 -3 -9 1 -9 9 0 17 3 19 12 6z m-84
-34 c-10 -9 -11 -8 -5 6 3 10 9 15 12 12 3 -3 0 -11 -7 -18z m-71 -131 c0 -2
-8 -10 -17 -17 -16 -13 -17 -12 -4 4 13 16 21 21 21 13z"/>
<path d="M3959 4518 c-1 -2 -2 -15 -3 -30 -3 -28 7 -37 19 -19 3 6 14 8 25 6
26 -5 26 21 1 35 -18 9 -40 13 -42 8z"/>
<path d="M4025 4470 c-4 -13 -10 -18 -14 -12 -3 6 -14 0 -24 -14 -10 -13 -13
-24 -7 -24 6 0 8 -5 5 -10 -3 -6 1 -13 9 -16 9 -3 14 -10 11 -14 -6 -10 73
-96 85 -93 5 2 6 -5 3 -14 -4 -11 -2 -14 5 -9 6 4 17 -5 26 -21 7 -16 24 -37
36 -48 12 -11 29 -33 37 -48 9 -18 20 -27 28 -23 8 3 17 1 20 -5 4 -5 2 -8 -3
-7 -6 2 -10 0 -11 -4 -1 -15 11 -38 21 -38 6 0 8 7 4 15 -3 8 0 15 6 15 6 0 9
3 5 6 -3 4 1 13 9 21 8 9 13 22 10 30 -3 8 -2 11 4 8 5 -3 14 3 20 14 14 28
-30 82 -52 63 -12 -9 -15 -9 -15 3 0 8 5 11 10 8 5 -3 7 0 5 8 -3 8 -11 13
-17 12 -6 -2 -10 3 -8 10 1 6 -4 11 -10 10 -7 -2 -12 3 -10 10 1 6 -4 11 -11
9 -8 -1 -11 2 -7 8 3 5 -1 13 -9 16 -9 3 -13 10 -10 15 3 5 -1 6 -9 3 -8 -3
-18 0 -23 7 -5 8 -3 10 7 4 12 -8 12 -6 0 8 -7 9 -18 14 -24 10 -6 -3 -7 -1
-3 5 7 11 -10 32 -66 81 l-26 23 -7 -22z m64 -44 c9 -11 9 -16 -1 -22 -7 -4
-10 -4 -6 1 4 4 3 14 -3 22 -6 7 -9 13 -6 13 2 0 10 -6 16 -14z m-11 -81 c-3
-3 -9 2 -12 12 -6 14 -5 15 5 6 7 -7 10 -15 7 -18z m50 -17 c15 -15 15 -28 1
-28 -5 0 -8 4 -4 9 3 6 -3 14 -12 20 -10 6 -13 11 -7 11 5 0 15 -5 22 -12z
m14 -45 c-6 -3 -9 -10 -5 -16 4 -7 -1 -6 -10 2 -21 17 -21 17 6 18 12 0 16 -1
9 -4z m77 -17 c-20 -17 -49 -25 -55 -14 -4 6 -3 8 2 5 6 -3 16 -2 24 4 14 8
38 13 29 5z m61 -50 c-1 -5 4 -13 12 -18 11 -8 11 -9 0 -6 -8 2 -13 7 -12 12
1 5 -4 13 -12 18 -11 8 -11 9 0 6 8 -2 13 -7 12 -12z m-14 -56 c0 -12 -4 -16
-9 -11 -5 5 -6 14 -3 20 10 15 12 14 12 -9z"/>
<path d="M3970 4455 c-8 -9 -8 -15 -2 -15 12 0 26 19 19 26 -2 2 -10 -2 -17
-11z"/>
<path d="M2331 4389 c-12 -36 -7 -51 14 -42 15 5 45 -13 45 -27 0 -4 -11 -11
-25 -14 -14 -4 -30 -17 -35 -30 -5 -13 -19 -26 -33 -30 -19 -4 -29 -19 -45
-68 -25 -75 -21 -112 13 -104 27 7 92 -39 97 -69 5 -32 66 -66 105 -59 29 5
33 4 33 -14 0 -31 11 -52 25 -52 20 0 28 -19 15 -34 -8 -10 -33 -13 -95 -11
-77 3 -85 2 -85 -14 0 -22 -38 -111 -47 -111 -4 0 -14 7 -23 15 -22 20 -50 9
-50 -20 0 -12 -7 -28 -15 -35 -18 -15 -19 -30 -4 -80 9 -30 20 -41 58 -59 25
-12 62 -30 81 -41 19 -10 47 -19 61 -20 27 0 44 -23 32 -43 -3 -6 -5 -34 -4
-63 2 -44 -1 -53 -17 -58 -23 -8 -33 -27 -39 -75 -3 -29 1 -38 37 -68 33 -28
38 -38 30 -53 -6 -10 -10 -30 -10 -43 0 -21 6 -25 40 -31 43 -7 49 -16 25 -36
-20 -16 -20 -84 0 -100 12 -10 15 -29 12 -82 -3 -37 0 -71 4 -74 5 -3 9 -19 9
-35 0 -16 6 -45 14 -64 8 -18 17 -66 20 -106 7 -79 10 -89 32 -89 9 0 14 -11
14 -30 0 -19 5 -30 14 -30 15 0 19 10 31 67 4 18 11 35 16 38 5 4 6 -7 3 -23
-4 -18 -1 -32 9 -41 17 -13 25 -5 32 29 2 11 11 30 19 42 18 26 21 17 5 -14
-14 -25 -3 -68 16 -68 8 0 15 5 15 10 0 6 7 10 15 10 19 0 19 9 -2 32 -9 11
-11 18 -5 18 7 0 12 -4 12 -9 0 -18 33 -21 57 -5 20 13 23 21 18 42 -4 15 -7
34 -6 42 1 8 2 35 2 60 1 41 1 42 9 15 4 -16 8 -44 9 -61 1 -22 7 -33 20 -37
14 -3 21 -15 23 -38 2 -19 6 -32 9 -29 3 3 12 0 20 -7 28 -23 56 -4 80 53 14
31 30 54 39 54 21 1 68 66 76 106 5 27 -1 49 -30 107 -20 41 -36 77 -36 80 0
4 14 7 32 7 17 0 39 7 49 16 15 13 20 13 50 0 20 -8 27 -15 17 -15 -10 -1 -18
-6 -18 -11 0 -18 32 -74 49 -88 16 -12 78 -8 93 7 12 11 -22 53 -38 47 -12 -4
-34 21 -34 38 0 10 129 -3 162 -17 18 -8 42 -25 54 -38 24 -28 64 -96 64 -110
0 -5 9 -28 19 -52 34 -73 48 -138 40 -187 -15 -89 -11 -115 20 -148 17 -17 33
-47 37 -69 3 -21 16 -51 28 -68 13 -16 32 -51 45 -77 25 -52 51 -81 51 -55 0
8 -6 28 -14 44 -24 49 -42 127 -36 162 3 21 15 42 33 55 l27 20 16 -22 c8 -12
24 -22 36 -22 11 0 22 -8 25 -20 3 -11 9 -20 14 -20 19 0 21 32 4 99 -13 54
-15 80 -7 115 5 26 6 48 0 54 -5 5 -11 47 -13 93 -3 73 -16 154 -41 264 -4 17
-13 37 -21 46 -8 9 -16 30 -18 45 -2 16 -4 31 -5 34 -1 3 -1 25 0 50 0 25 -8
72 -19 105 -11 33 -21 68 -21 79 0 11 -5 16 -14 13 -7 -3 -18 -1 -23 4 -6 6
-18 1 -32 -13 -22 -20 -25 -20 -36 -5 -21 29 -27 19 -20 -32 6 -43 4 -50 -17
-67 -33 -27 -48 -67 -39 -101 10 -37 -4 -67 -39 -80 -34 -13 -41 -7 -60 52
-23 73 -50 83 -50 19 0 -54 -17 -31 -25 33 -4 32 -15 74 -25 93 -20 41 -33
110 -20 110 11 0 26 48 22 68 -2 6 8 16 21 21 13 5 27 19 30 31 5 19 11 22 37
18 23 -3 35 0 44 14 8 10 20 16 28 13 9 -4 18 1 22 11 6 16 8 15 26 -1 11 -10
21 -16 23 -14 21 35 27 51 22 59 -4 6 1 10 9 10 9 0 16 4 16 9 0 5 9 11 20 14
11 3 23 13 26 24 3 10 9 27 14 38 19 50 30 94 30 118 0 31 0 31 33 16 25 -12
67 1 67 21 0 12 -62 70 -75 70 -6 0 -28 9 -49 21 -29 15 -54 20 -105 18 -36 0
-97 0 -136 1 -107 3 -159 2 -300 -3 -132 -5 -164 0 -243 34 -23 11 -48 19 -55
19 -29 0 -35 21 -22 78 12 50 12 59 -2 74 -11 12 -13 26 -8 45 13 49 12 85 -2
90 -7 3 -13 11 -13 17 0 7 -10 26 -23 44 -28 37 -47 27 -47 -23 0 -51 -11 -59
-56 -44 -66 23 -103 57 -110 100 -7 45 -55 94 -73 76 -16 -16 -14 -23 16 -51
15 -14 24 -28 20 -32 -4 -4 -15 0 -24 9 -13 11 -23 13 -36 6 -12 -7 -17 -7
-17 2 0 6 -8 9 -20 6 -17 -4 -19 -1 -14 18 5 19 -3 29 -50 60 -31 20 -56 43
-56 51 0 25 -18 15 -29 -17z"/>
<path d="M4420 3149 c0 -5 5 -7 10 -4 6 3 10 8 10 11 0 2 -4 4 -10 4 -5 0 -10
-5 -10 -11z"/>
<path d="M3159 2857 c-27 -21 -30 -46 -9 -85 22 -41 26 -112 9 -144 -9 -17 -8
-24 5 -33 9 -7 16 -20 16 -30 0 -16 3 -16 26 6 37 34 47 65 45 134 -2 41 -8
66 -20 80 -10 11 -23 33 -28 49 -11 34 -22 40 -44 23z"/>
<path d="M3437 2768 c6 -48 33 -84 57 -75 9 4 16 12 16 19 0 23 -45 93 -62 96
-14 3 -15 -4 -11 -40z"/>
<path d="M3308 2738 c-3 -7 -1 -33 4 -58 5 -25 7 -57 4 -72 -6 -32 4 -36 27
-10 17 19 21 75 8 122 -7 27 -36 39 -43 18z"/>
<path d="M2909 2049 c-13 -45 -28 -82 -34 -84 -5 -1 -38 -9 -73 -18 l-62 -15
-54 63 -54 64 -72 -35 c-56 -26 -70 -38 -66 -51 3 -10 10 -46 17 -81 l12 -62
-29 -23 c-16 -12 -42 -34 -58 -48 l-30 -26 -75 33 -76 34 -37 -43 c-67 -76
-67 -77 -13 -147 l47 -61 -30 -67 c-33 -75 -40 -79 -144 -81 l-57 -1 -10 -37
c-5 -21 -14 -54 -19 -73 l-9 -35 76 -40 c75 -40 76 -40 74 -77 l-2 -38 133 0
133 0 5 63 c19 234 199 448 442 525 75 24 263 23 336 -2 246 -83 415 -285 437
-522 l6 -64 128 0 129 0 0 33 c0 29 6 35 73 72 71 40 72 42 70 79 -2 20 -7 55
-13 77 l-11 39 -67 0 c-99 0 -103 3 -138 79 l-31 68 50 67 49 66 -25 33 c-14
17 -37 45 -50 62 l-25 30 -71 -34 c-80 -39 -82 -39 -159 27 l-44 38 16 61 c24
92 24 94 -47 131 -35 17 -67 32 -72 31 -6 0 -32 -27 -60 -60 -27 -32 -57 -59
-65 -58 -8 0 -42 6 -75 13 l-60 13 -19 81 -20 82 -77 0 -76 0 -24 -81z"/>
<path d="M383 3284 c-8 -22 13 -63 39 -73 30 -11 38 -6 38 25 0 45 -63 85 -77
48z"/>
<path d="M477 2862 l-38 -3 37 -69 38 -69 18 42 c11 23 30 56 44 75 l26 33
-44 -3 c-23 -2 -60 -4 -81 -6z"/>
<path d="M717 1885 c-4 -25 -14 -59 -22 -76 l-16 -30 71 36 c38 19 70 39 70
43 0 4 -17 18 -38 32 -20 13 -42 28 -48 32 -8 6 -13 -6 -17 -37z"/>
<path d="M2574 604 c9 -30 15 -35 35 -31 16 3 32 -3 49 -20 13 -13 25 -23 27
-21 1 2 5 22 9 44 l6 42 -63 11 c-35 6 -66 11 -69 11 -3 0 0 -16 6 -36z"/>
<path d="M2899 575 c35 -36 61 -86 61 -116 0 -11 11 -34 25 -51 l25 -30 0 39
c0 21 2 70 4 110 l3 72 -73 3 -73 3 28 -30z"/>
<path d="M3431 427 l-22 -25 30 -15 c30 -15 31 -15 30 6 0 12 -4 30 -8 40 -6
17 -8 16 -30 -6z"/>
</g>
</svg>
